<svg xmlns="http://www.w3.org/2000/svg" version="1.1" xmlns:xlink="http://www.w3.org/1999/xlink" width="40" height="40"><svg xmlns="http://www.w3.org/2000/svg" version="1.1" xmlns:xlink="http://www.w3.org/1999/xlink" width="40" height="40"><svg xmlns="http://www.w3.org/2000/svg" xmlns:xlink="http://www.w3.org/1999/xlink" width="40" zoomAndPan="magnify" viewBox="0 0 30 30.000001" height="40" preserveAspectRatio="xMidYMid meet" version="1.0"><defs><clipPath id="e060eb77c4"><path d="M 0.484375 0 L 29.515625 0 L 29.515625 29.03125 L 0.484375 29.03125 Z M 0.484375 0 " clip-rule="nonzero"></path></clipPath></defs><g clip-path="url(#e060eb77c4)"><path fill="#ff914d" d="M 15 0 C 23.015625 0 29.515625 6.5 29.515625 14.515625 C 29.515625 22.53125 23.015625 29.03125 15 29.03125 C 6.984375 29.03125 0.484375 22.53125 0.484375 14.515625 C 0.484375 6.5 6.984375 0 15 0 Z M 14.695312 2.589844 C 14.632812 2.367188 14.03125 2.898438 14.308594 3.644531 C 14.394531 3.875 14.488281 4.070312 14.601562 4.234375 C 14.613281 4.25 14.625 4.269531 14.636719 4.285156 C 14.878906 4.621094 15.199219 4.835938 15.652344 5.03125 C 15.703125 5.054688 15.753906 5.074219 15.804688 5.097656 C 15.835938 5.109375 15.867188 5.121094 15.894531 5.132812 C 15.972656 5.164062 16.050781 5.191406 16.121094 5.21875 C 16.152344 5.230469 16.183594 5.242188 16.210938 5.253906 C 16.355469 5.308594 16.484375 5.359375 16.582031 5.402344 C 16.582031 5.402344 16.234375 5.34375 16.011719 5.34375 C 13.914062 5.34375 12.503906 5.421875 10.578125 4.53125 C 9.453125 4.015625 8.589844 2.886719 8.4375 2.886719 C 8.234375 2.886719 8.148438 3.960938 9.183594 4.875 C 10.5625 6.097656 12.175781 6.25 13.433594 6.421875 C 13.03125 6.535156 12.789062 6.667969 12.410156 6.875 C 10.953125 6.640625 9.824219 6.773438 9.386719 7.898438 L 9.394531 7.894531 C 10.097656 7.671875 10.453125 7.558594 10.996094 7.941406 C 9.871094 8.515625 9.023438 9.035156 9.054688 9.71875 C 9.453125 9.648438 9.660156 9.539062 9.996094 9.691406 C 9.066406 10.742188 8.425781 11.703125 8.863281 12.714844 C 9.15625 12.394531 9.324219 12.214844 9.6875 12.015625 C 9.128906 13.761719 9.03125 14.820312 9.84375 15.253906 C 9.875 14.863281 9.917969 14.664062 10.113281 14.386719 C 10.171875 15.742188 10.296875 16.425781 11.316406 16.984375 C 11.238281 16.515625 11.179688 16.246094 11.402344 16.023438 C 12.089844 17.078125 12.46875 18.011719 13.492188 18.492188 C 13.40625 18.128906 13.335938 17.925781 13.40625 17.542969 C 14.3125 18.417969 14.570312 19.167969 15.347656 19.902344 C 15.410156 19.566406 15.636719 19.121094 15.636719 19.117188 C 15.851562 19.179688 16.484375 20.25 16.585938 21.761719 C 16.898438 21.664062 17.007812 21.472656 17.183594 21.09375 C 17.570312 21.4375 17.554688 21.984375 17.203125 22.390625 C 16.851562 22.796875 16.207031 22.261719 16.203125 22.257812 C 16.164062 22.570312 16.238281 22.703125 16.394531 22.9375 C 15.679688 22.9375 15.460938 21.152344 14.539062 20.683594 C 14.601562 21.046875 14.609375 21.246094 14.503906 21.5625 C 13.902344 20.839844 13.953125 19.253906 13.167969 18.980469 C 13.273438 19.304688 13.265625 19.527344 13.144531 19.671875 C 12.570312 18.335938 11.796875 17.410156 11.117188 17.277344 L 11.3125 18.007812 C 10.25 17.027344 8.703125 16.167969 8.027344 16.921875 C 8.539062 17.148438 8.835938 17.3125 8.867188 17.65625 C 7.269531 17.226562 6.046875 17.210938 5.382812 18.035156 C 5.847656 18.125 6.082031 18.105469 6.390625 18.355469 C 4.625 18.589844 3.921875 18.949219 3.449219 20.207031 C 3.875 20.066406 4.238281 19.988281 4.464844 20.140625 C 4.121094 20.628906 3.472656 20.894531 3.058594 21.632812 C 7.019531 26.726562 6.75 25.625 7.878906 23.136719 C 7.890625 23.109375 7.902344 23.085938 7.914062 23.058594 C 8.039062 22.816406 8.21875 22.621094 8.457031 22.519531 C 8.472656 22.515625 8.492188 22.507812 8.507812 22.5 C 8.519531 22.496094 8.527344 22.492188 8.539062 22.492188 C 8.558594 22.484375 8.578125 22.480469 8.597656 22.472656 C 8.667969 22.457031 8.742188 22.449219 8.820312 22.449219 C 9.085938 22.449219 9.351562 22.550781 9.617188 22.71875 C 9.640625 22.734375 9.664062 22.746094 9.6875 22.761719 C 9.703125 22.773438 9.71875 22.785156 9.734375 22.796875 C 9.746094 22.804688 9.757812 22.8125 9.769531 22.820312 C 10.191406 23.125 10.605469 23.585938 10.996094 24.066406 C 11.015625 24.09375 11.035156 24.117188 11.054688 24.140625 C 11.109375 24.210938 11.164062 24.28125 11.21875 24.347656 C 11.585938 24.8125 11.9375 25.222656 12.292969 25.589844 C 12.292969 25.589844 12.296875 25.59375 12.296875 25.59375 C 12.320312 25.617188 12.339844 25.640625 12.359375 25.660156 C 12.367188 25.664062 12.371094 25.671875 12.375 25.675781 C 13.246094 26.5625 14.101562 27.15625 15.042969 27.488281 C 15.414062 27.617188 15.835938 27.71875 16.285156 27.773438 C 16.285156 27.773438 16.289062 27.773438 16.292969 27.773438 C 16.3125 27.773438 16.335938 27.777344 16.355469 27.78125 C 16.363281 27.78125 16.367188 27.78125 16.375 27.78125 C 16.394531 27.785156 16.414062 27.785156 16.433594 27.789062 C 16.441406 27.789062 16.445312 27.789062 16.453125 27.789062 C 17.273438 27.867188 18.175781 27.78125 19.058594 27.449219 C 19.0625 27.445312 19.0625 27.445312 19.066406 27.445312 C 19.089844 27.433594 19.117188 27.425781 19.140625 27.414062 C 19.144531 27.414062 19.144531 27.414062 19.144531 27.414062 C 19.222656 27.382812 19.296875 27.351562 19.375 27.316406 C 20.804688 26.667969 22.300781 25.199219 22.796875 23.15625 C 23.066406 22.066406 23.070312 21.128906 22.835938 20.234375 C 22.828125 20.214844 22.824219 20.195312 22.820312 20.175781 C 22.621094 19.449219 22.261719 18.742188 21.753906 17.992188 C 21.75 17.988281 21.75 17.988281 21.746094 17.984375 C 21.726562 17.957031 21.707031 17.929688 21.691406 17.902344 C 21.25 17.265625 20.730469 16.808594 20.175781 16.445312 C 20.175781 16.445312 20.175781 16.445312 20.171875 16.445312 C 19.316406 15.886719 18.378906 15.542969 17.523438 15.078125 C 17.234375 14.921875 16.972656 14.785156 16.730469 14.65625 C 16.695312 14.636719 16.660156 14.617188 16.625 14.597656 C 16.207031 14.375 15.832031 14.160156 15.433594 13.867188 C 15.414062 13.851562 15.390625 13.835938 15.367188 13.816406 C 15.199219 13.691406 15.027344 13.554688 14.84375 13.394531 C 14.683594 13.253906 14.550781 13.105469 14.453125 12.949219 C 14.4375 12.921875 14.421875 12.898438 14.40625 12.871094 C 14.257812 12.601562 14.203125 12.300781 14.269531 11.949219 C 14.269531 11.933594 14.273438 11.921875 14.277344 11.90625 C 14.28125 11.882812 14.289062 11.859375 14.296875 11.839844 C 14.40625 11.464844 14.695312 11.140625 14.964844 10.964844 C 15.070312 10.960938 15.1875 10.96875 15.328125 10.984375 C 15.230469 11.460938 15.046875 11.667969 14.695312 12.03125 C 15.261719 12.226562 16.421875 11.46875 17.183594 11.394531 C 18.042969 11.3125 19.511719 11.988281 19.789062 12.632812 C 19.929688 12.960938 19.558594 13.398438 19.03125 13.664062 C 19.421875 13.804688 19.808594 13.835938 20.367188 13.703125 C 20.171875 14.109375 19.980469 14.285156 19.550781 14.546875 C 19.554688 14.546875 20.761719 14.707031 21.304688 14.277344 C 22.042969 13.691406 22.960938 12.429688 22.675781 12.234375 C 22.738281 12.105469 22.761719 11.902344 22.777344 11.527344 C 22.660156 11.71875 22.652344 11.839844 22.390625 11.945312 C 22.140625 12.042969 21.929688 11.980469 21.871094 11.976562 C 21.992188 11.875 22.039062 11.804688 22.109375 11.675781 C 21.925781 11.800781 21.839844 11.84375 21.652344 11.832031 C 21.171875 11.800781 18.695312 9.972656 18.539062 9.871094 C 18.355469 9.75 19.503906 9.921875 20.117188 10.007812 C 20.996094 10.128906 21.941406 10.449219 22.335938 10.488281 C 22.371094 10.726562 22.078125 10.96875 22.078125 10.972656 C 22.082031 10.972656 22.648438 10.945312 22.777344 10.585938 L 23.242188 10.585938 C 23.316406 10.871094 23.242188 11.023438 23.058594 11.277344 C 23.519531 11.039062 23.789062 10.636719 23.90625 10.15625 C 24.058594 10.097656 24.1875 10.007812 24.277344 9.878906 C 24.667969 9.300781 24.652344 8.472656 24.046875 8.0625 C 23.363281 7.601562 22.535156 8.21875 22.53125 8.21875 C 22.085938 8.316406 20.886719 8.113281 20.792969 7.984375 C 20.878906 7.828125 20.945312 7.53125 20.878906 7.246094 C 20.785156 6.835938 20.519531 6.648438 20.144531 6.449219 C 19.757812 6.246094 19.035156 6.300781 19.03125 6.300781 C 18.964844 6.082031 18.894531 5.894531 18.816406 5.726562 C 18.8125 5.71875 18.808594 5.710938 18.804688 5.707031 C 18.792969 5.679688 18.78125 5.65625 18.769531 5.632812 C 18.761719 5.617188 18.75 5.601562 18.742188 5.585938 C 18.730469 5.558594 18.714844 5.53125 18.699219 5.507812 C 18.6875 5.488281 18.675781 5.46875 18.664062 5.449219 C 18.636719 5.40625 18.609375 5.363281 18.582031 5.328125 C 18.574219 5.3125 18.566406 5.300781 18.554688 5.289062 C 18.53125 5.253906 18.507812 5.222656 18.480469 5.195312 C 18.476562 5.1875 18.46875 5.179688 18.460938 5.171875 C 18.417969 5.121094 18.375 5.074219 18.328125 5.03125 C 18.316406 5.023438 18.304688 5.011719 18.296875 5.003906 C 18.246094 4.960938 18.195312 4.917969 18.144531 4.882812 C 18.117188 4.867188 18.09375 4.847656 18.070312 4.832031 C 17.992188 4.785156 17.910156 4.742188 17.828125 4.703125 C 17.808594 4.695312 17.789062 4.6875 17.769531 4.675781 C 17.738281 4.664062 17.703125 4.648438 17.671875 4.636719 C 17.578125 4.601562 17.480469 4.570312 17.382812 4.542969 C 17.339844 4.527344 17.296875 4.515625 17.25 4.503906 C 17.199219 4.492188 17.144531 4.476562 17.09375 4.464844 C 16.78125 4.386719 16.453125 4.308594 16.105469 4.175781 C 15.886719 4.089844 15.695312 3.992188 15.53125 3.875 C 15.511719 3.863281 15.496094 3.851562 15.476562 3.835938 C 15.089844 3.546875 14.851562 3.148438 14.695312 2.589844 Z M 16.976562 7.207031 C 17.144531 7.257812 17.558594 7.394531 17.675781 7.375 C 17.792969 7.351562 18.8125 7.246094 19.203125 7.613281 C 19.539062 7.933594 19.992188 8.214844 20.332031 8.230469 C 20.523438 8.238281 20.648438 8.140625 20.699219 8.054688 C 20.664062 8.121094 20.589844 8.265625 20.445312 8.339844 C 20.140625 8.496094 19.773438 8.308594 19.5625 8.203125 L 19.5625 8.199219 C 19.351562 8.507812 18.941406 8.601562 18.644531 8.566406 C 17.9375 8.488281 17.773438 7.730469 17.65625 7.660156 C 17.570312 7.609375 17.0625 7.398438 16.976562 7.207031 Z M 18.785156 7.65625 C 18.535156 7.558594 18.289062 7.542969 17.980469 7.578125 C 18 7.765625 18.085938 7.921875 18.222656 8.070312 C 18.570312 8.445312 19.113281 8.476562 19.40625 8.0625 C 19.265625 7.941406 19.136719 7.847656 19.015625 7.773438 C 18.941406 7.917969 18.863281 8.109375 18.789062 8.347656 C 18.742188 8.082031 18.75 7.84375 18.785156 7.65625 Z M 18.9375 7.730469 C 18.933594 7.726562 18.933594 7.726562 18.929688 7.726562 L 18.929688 7.722656 C 18.929688 7.726562 18.933594 7.726562 18.9375 7.730469 Z M 18.9375 7.730469 " fill-opacity="1" fill-rule="nonzero"></path></g></svg></svg><style>@media (prefers-color-scheme: light) { :root { filter: none; } }
@media (prefers-color-scheme: dark) { :root { filter: none; } }
</style></svg>